<?xml version="1.0" encoding="utf-8"?>
<!-- Generator: Adobe Illustrator 19.2.1, SVG Export Plug-In . SVG Version: 6.00 Build 0)  -->
<svg version="1.1" id="Layer_1" xmlns="http://www.w3.org/2000/svg" xmlns:xlink="http://www.w3.org/1999/xlink" x="0px" y="0px"
	 viewBox="0 0 130.1 250" style="enable-background:new 0 0 130.1 250;" xml:space="preserve">
<style type="text/css">
	.st0{fill:#7CBDE8;}
</style>
<g>
	<path class="st0" d="M52.2,29.7c0.4-1.1,0.3-1.9,0.3-2.8c0-6.8,0-13.5,0-20.3c0-0.7,0-1.3,0-2C52.6,1.5,55,0,57.2,0
		C63.3,0,69.4,0,75.5,0c2.8,0,4.2,1.5,4.6,4.2c0.1,0.7,0.1,1.3,0.1,2c0,6.7,0,13.4,0,20.1c0,0.8-0.1,1.6,0.2,2.5
		c1.8,0.7,3.7,0.6,5.6,1c13.1,2.5,25.2,7.5,35.6,16c0.9,0.7,1.7,1.4,2.5,2.3c1.6,1.9,1.8,3.3,0.6,5.5c-2.5,4.5-5,9-7.4,13.5
		c-1.1,2-2.2,4-3.4,6c-1.9,3.4-4.7,3.9-7.7,1.5c-2.1-1.7-4.3-3.2-6.5-4.7C92,65,83.9,61.7,75,60.4c-8.8-1.3-17.4-0.5-25.3,3.8
		c-4,2.2-7.3,5.1-9.4,9.3c-2.7,5.3-2.4,15.1,3.3,20.2c4,3.5,8.2,6.6,13,8.9c8.5,4,17.4,7.3,26.2,10.7c6.7,2.6,13.1,5.7,19.4,9
		c6.1,3.2,11.4,7.5,16.3,12.3c5.2,5,8.1,11.3,9.9,18.2c3.4,13.7,1.7,26.9-5.2,39.2c-6.7,12-16.8,20.4-29.8,25.4
		c-3.5,1.3-7.2,2.4-10.9,3.1c-0.7,0.1-1.4,0.3-2.1,0.5c-0.5,0.7-0.3,1.4-0.3,2c0,6.8,0,13.5,0,20.3c0,0.6,0,1.2,0,1.8
		c-0.3,3.2-1.8,4.7-5,4.8c-5.9,0.1-11.8,0.1-17.6,0c-3.4,0-5-1.8-5.1-5.4c0-7,0-14,0-21c0-0.8,0.2-1.6-0.3-2.5
		c-4.2-0.7-8.4-1.5-12.5-2.7c-13-3.7-24.6-10-34.8-18.8c-1.1-1-2.2-2-3.2-3.1c-2-2.2-2.1-4-0.3-6.4c4.5-6,9.1-12,13.7-17.9
		c2-2.6,4.6-2.9,7.1-0.7c6.8,5.9,14.2,10.8,22.6,14.1c7.3,2.9,14.9,4.7,22.8,4.5c8-0.2,15.3-2.5,21.2-8c5.3-4.9,6.9-11.1,5.8-18.1
		c-0.5-3-2.3-5.4-4.2-7.8c-2.3-2.9-5.3-4.9-8.6-6.7C74.1,145.3,66,142,58,138.8c-7.6-3-15.2-6-22.4-9.9c-5.4-2.9-10.8-6.1-15.4-10.2
		c-5-4.5-9.4-9.5-12.4-15.6C6,99.4,4.9,95.6,4.2,91.6c-1.4-7.6-1.3-15.1,0.7-22.5c2-7.1,5.5-13.4,10.4-19c7.4-8.6,16.7-14.4,27.4-18
		C45.8,31.1,49,30.3,52.2,29.7z"/>
</g>
</svg>
