<?xml version="1.0" encoding="utf-8"?>
<!-- Generator: Adobe Illustrator 22.0.1, SVG Export Plug-In . SVG Version: 6.00 Build 0)  -->
<svg version="1.1" id="Layer_1" xmlns="http://www.w3.org/2000/svg" xmlns:xlink="http://www.w3.org/1999/xlink" x="0px" y="0px"
	 viewBox="0 0 214.3 250" style="enable-background:new 0 0 214.3 250;" xml:space="preserve">
<style type="text/css">
	.st0{fill:#7CBDE8;}
</style>
<g>
	<path class="st0" d="M0,125C0,88.2,0,51.4,0,14.7C0,9.9,1.4,5.9,5.1,2.9C7.8,0.7,10.9,0,14.3,0c10.2,0,20.4,0,30.6,0
		c30.6,0,61.2,0,91.7,0c10,0,18.6,3.5,25.7,10.5c13.9,13.7,27.8,27.6,41.5,41.5c6.9,7,10.4,15.6,10.4,25.5c0,52.5,0,104.9,0,157.4
		c0,2.5-0.1,4.9-1.2,7.2c-2.3,4.7-6.1,7.4-11.4,7.8c-0.7,0.1-1.5,0.1-2.2,0.1c-61.5,0-123.1,0-184.6,0c-3.6,0-6.9-0.6-9.8-3
		c-3-2.5-4.7-5.7-5-9.6c0-0.8,0-1.6,0-2.4C0,198.3,0,161.6,0,125z M17.9,232c4.2,0.4,176.8,0.3,178.4-0.1c0-47.5,0-95,0-142.6
		c-0.9,0-1.6,0-2.4,0c-6,0-12.1,0-18.1,0c-12.3,0-24.6,0-36.8,0c-4.8,0-8.7-1.8-11.5-5.7c-1.9-2.6-2.5-5.6-2.5-8.8
		c0-18.2,0-36.3,0-54.5c0-0.8,0.3-1.6-0.2-2.3c-35.7,0-71.3,0-106.9,0C17.9,89.4,17.9,160.6,17.9,232z M195.3,71.3
		c-0.8-2.6-2-4.7-3.9-6.6c-12.9-12.9-25.8-25.7-38.6-38.6c-1.3-1.3-2.6-2.6-3.9-3.9c-1.6-1.6-3.5-2.6-5.8-3.1
		c-0.4,3.5-0.3,50.6,0.1,52.2C160.5,71.3,177.8,71.3,195.3,71.3z"/>
</g>
<g>
	<path class="st0" d="M71,165H57.7v15.8h15v9.8H46.4v-58.3h25.4v9.8h-14v13.4H71V165z"/>
	<path class="st0" d="M116.1,170.2c-0.3-5.6-0.7-13.1-0.5-19.3h-0.2c-1,6.3-2.6,13.4-3.7,18l-5.1,20.8h-8l-4.8-20.5
		c-1.1-4.7-2.7-12-3.6-18.3H90c-0.2,6.4-0.6,13.7-0.9,19.5l-1,20.2h-9.7l4.2-58.3h12l4.7,21.1c1.6,7.4,3.1,13.8,4.1,20.4h0.2
		c0.9-6.5,2.2-13,3.7-20.4l4.6-21.1h12l3.5,58.3h-10.2L116.1,170.2z"/>
	<path class="st0" d="M167.9,189.1c-2.5,1-7.8,2.1-12.1,2.1c-6.7,0-11.7-1.9-15.6-5.8c-5-4.9-7.7-13.5-7.5-23.6
		c0.3-21.2,12.4-30,24.7-30c4.4,0,7.7,0.9,9.5,1.8l-2,9.8c-1.7-0.8-3.9-1.3-6.7-1.3c-7.7,0-13.8,5.3-13.8,20.5
		c0,14,5.4,19.1,10.7,19.1c1,0,1.8-0.1,2.3-0.3v-14h-5.2v-9.3h15.6V189.1z"/>
</g>
</svg>
