<?xml version="1.0" encoding="utf-8"?>
<!-- Generator: Adobe Illustrator 19.2.1, SVG Export Plug-In . SVG Version: 6.00 Build 0)  -->
<svg version="1.1" id="Layer_1" xmlns="http://www.w3.org/2000/svg" xmlns:xlink="http://www.w3.org/1999/xlink" x="0px" y="0px"
	 viewBox="0 0 214.3 250" style="enable-background:new 0 0 214.3 250;" xml:space="preserve">
<style type="text/css">
	.st0{fill:#7CBDE8;}
</style>
<g>
	<path class="st0" d="M0,125C0,88.2,0,51.4,0,14.7C0,9.9,1.4,5.9,5.1,2.9C7.8,0.7,10.9,0,14.3,0c10.2,0,20.4,0,30.6,0
		c30.6,0,61.2,0,91.7,0c10,0,18.6,3.5,25.7,10.5c13.9,13.7,27.8,27.6,41.5,41.5c6.9,7,10.4,15.6,10.4,25.5c0,52.5,0,104.9,0,157.4
		c0,2.5-0.1,4.9-1.2,7.2c-2.3,4.7-6.1,7.4-11.4,7.8c-0.7,0.1-1.5,0.1-2.2,0.1c-61.5,0-123.1,0-184.6,0c-3.6,0-6.9-0.6-9.8-3
		c-3-2.5-4.7-5.7-5-9.6C0,236.6,0,235.8,0,235C0,198.3,0,161.6,0,125z M17.9,232c4.2,0.4,176.8,0.3,178.4-0.1c0-47.5,0-95,0-142.6
		c-0.9,0-1.6,0-2.4,0c-6,0-12.1,0-18.1,0c-12.3,0-24.6,0-36.8,0c-4.8,0-8.7-1.8-11.5-5.7c-1.9-2.6-2.5-5.6-2.5-8.8
		c0-18.2,0-36.3,0-54.5c0-0.8,0.3-1.6-0.2-2.3c-35.7,0-71.3,0-106.9,0C17.9,89.4,17.9,160.6,17.9,232z M195.3,71.3
		c-0.8-2.6-2-4.7-3.9-6.6c-12.9-12.9-25.8-25.7-38.6-38.6c-1.3-1.3-2.6-2.6-3.9-3.9c-1.6-1.6-3.5-2.6-5.8-3.1
		c-0.4,3.5-0.3,50.6,0.1,52.2C160.5,71.3,177.8,71.3,195.3,71.3z"/>
	<path class="st0" d="M107.1,178.6c15.8,0,31.5,0,47.3,0c1,0,1.9-0.1,2.9,0.2c2.1,0.6,3.3,1.8,3.4,3.9c0.1,3.1,0.1,6.3,0,9.4
		c-0.1,2.6-1.7,4-4.3,4.3c-0.7,0.1-1.3,0-2,0c-31.5,0-62.9,0-94.4,0c-5.2,0-6.4-1.2-6.4-6.5c0-2.2,0-4.3,0-6.5
		c0.1-3.1,1.6-4.7,4.6-4.8c0.5,0,1,0,1.6,0C75.6,178.6,91.4,178.6,107.1,178.6z"/>
	<path class="st0" d="M107.2,107.2c15.8,0,31.5,0,47.3,0c4.9,0,6.2,1.3,6.3,6.2c0,2.2,0,4.3,0,6.5c-0.1,3.5-1.6,5-5,5.2
		c-0.4,0-0.9,0-1.3,0c-31.5,0-62.9,0-94.4,0c-5.1,0-6.3-1.3-6.4-6.3c0-1.7,0.1-3.4,0-5.1c-0.3-4.9,1.8-6.4,6.3-6.4
		C75.6,107.2,91.4,107.2,107.2,107.2z"/>
	<path class="st0" d="M107.2,142.9c15.8,0,31.5,0,47.3,0c4.9,0,6.2,1.3,6.2,6.2c0,2.2,0,4.3,0,6.5c-0.1,3.5-1.6,5-5.1,5.2
		c-0.4,0-0.9,0-1.3,0c-31.5,0-62.9,0-94.4,0c-5.1,0-6.3-1.3-6.3-6.3c0-1.9,0-3.7,0-5.6c0-4.5,1.4-5.9,5.8-5.9c7.4,0,14.7,0,22.1,0
		C90.1,142.9,98.6,142.9,107.2,142.9z"/>
</g>
</svg>
