<?xml version="1.0" encoding="utf-8"?>
<!-- Generator: Adobe Illustrator 19.2.1, SVG Export Plug-In . SVG Version: 6.00 Build 0)  -->
<svg version="1.1" id="Layer_1" xmlns="http://www.w3.org/2000/svg" xmlns:xlink="http://www.w3.org/1999/xlink" x="0px" y="0px"
	 viewBox="0 0 170.4 225" style="enable-background:new 0 0 170.4 225;" xml:space="preserve">
<style type="text/css">
	.st0{fill:#7CBDE8;}
</style>
<g id="FC4jTB_1_">
	<g>
		<g>
			<path class="st0" d="M97,0c2.8,4.7,5,8.5,7.4,12.6c4.1-2.5,7.9-4.8,12.1-7.3c1.3,4.5,2.6,8.7,4,13.2c4.5-1.5,8.8-2.8,13.4-4.3
				c1,4.6,0.1,9.1,1,13.7c4.7-0.4,9.1-1.2,13.9-0.8c-1,4.4-1.9,8.5-2.8,12.8c4.6,1.7,9.5,1,14,2.8c-2,3.9-3.9,7.7-5.9,11.7
				c3.9,2.7,8.6,3.4,12.9,5.9c-3,3.5-5.8,6.8-8.8,10.3c3.3,3.3,7.6,5.2,11.3,8.6c-3.8,2.7-7.4,5.3-11.5,8.1
				c3.1,3.6,5.9,6.9,9.2,10.6c-4.5,1.8-8.6,3.6-12.9,5.4c1.3,4.4,4,7.8,5.6,12.1c-4.3,1.9-9.2,1.1-13.8,2.8
				c0.9,4.3,1.8,8.4,2.8,12.8c-4.4,0.8-8.7-1.3-13.4-0.1c11.7,24.1,23.2,48.1,35.1,72.6c-12.4-3.7-24.2-7.2-36.1-10.8
				c-4.2,10.9-8.2,21.3-12.4,32.4c-12.3-25.4-24.2-50-36.6-75.6C72.8,175,60.9,199.6,48.6,225c-4.3-11.1-8.3-21.5-12.4-32.4
				c-12,3.6-23.7,7.1-36.2,10.8c11.9-24.5,23.4-48.5,35.1-72.5c-3.1-1-5.9,0.7-9,0.2c0.9-4.5,1.8-8.7,2.7-13.1
				c-4.6-1.5-9-1.5-13.6-2.4c1-4.5,3.9-7.9,5.5-12.2c-3.8-2.5-8.4-3.3-12.9-5.7c3-3.5,5.9-6.9,8.9-10.4c-3.4-3.2-7.5-5.3-11.3-8.5
				c3.9-2.8,7.6-5.4,11.5-8.2c-3.1-3.6-6-6.9-9.2-10.5c4.6-1.9,8.6-3.6,13-5.4c-1.4-4.3-4.1-7.9-5.7-12.1c4.4-1.9,9.2-1.1,13.5-2.8
				c0.2-4.4-2.1-8.2-2-12.7c4.6-0.6,8.9,0.5,13.5,0.6c1.2-4.4,0.3-8.9,0.9-13.6c4.5,1.4,8.7,2.8,13.2,4.2c2-4.1,2.4-8.6,4.3-13.1
				c3.9,2.4,7.8,4.7,12,7.3c2.4-4,4.7-7.7,7.2-11.9c3.4,3.5,6.5,6.6,9.7,9.8C90.5,7,93.5,3.8,97,0z"/>
		</g>
	</g>
</g>
</svg>
