<?xml version="1.0" encoding="utf-8"?>
<!-- Generator: Adobe Illustrator 19.2.1, SVG Export Plug-In . SVG Version: 6.00 Build 0)  -->
<svg version="1.1" id="Layer_1" xmlns="http://www.w3.org/2000/svg" xmlns:xlink="http://www.w3.org/1999/xlink" x="0px" y="0px"
	 viewBox="0 0 198.5 225" style="enable-background:new 0 0 198.5 225;" xml:space="preserve">
<style type="text/css">
	.st0{fill:#7CBDE8;}
</style>
<g>
	<path class="st0" d="M195.6,91.8c-1.9-4.4-4.8-8.3-8.5-11.6c-4-3.5-8.5-5.9-13.5-7.3c-4.8-1.3-9.7-1.5-14.7-0.6
		c-4.7,0.8-9.2,2.6-13.2,5.5c-4.1,2.9-7.4,6.5-10,10.8c-3,5.1-4.5,10.8-4.4,16.9c0,4.9,1,9.4,2.8,13.4c4.2,9,11,15.2,20.3,18.3
		c0.6,0.2,1.3,0.4,1.9,0.5c0,0,0.1,0,0.1,0l0,5.3c0,7.6,0,15.3,0,22.9c0,2.1-0.1,4-0.3,5.6c-0.7,5.2-2.1,9.7-4.3,14
		c-2.1,4-4.6,7.5-7.6,10.5c-3.3,3.2-7.1,5.9-11.2,8c-4.5,2.2-9.3,3.5-14.7,4c-4.1,0.4-8.4,0-13.2-1.1c-4.7-1.1-9.2-3.1-13.4-6
		c-3.9-2.6-7.3-6-10.3-10.1c-3.6-5-6-10.7-7.1-16.9c-0.4-2.3-0.6-4.8-0.6-8.1c0-10.6-0.1-21.3-0.1-31.9c0-0.2,0-0.5,0-0.7
		c2.3-0.4,4.4-1.1,6.3-1.8c4.6-1.6,9.1-3.9,13.6-7.2c4.2-3.1,8.2-6.7,12.2-11.2c2.1-2.4,3.1-5,3-7.7c0,0,0-0.1,0.3-0.5l0.5-0.7
		c1.7-2.4,3.4-4.9,4.9-7.5c2.6-4.3,4.8-8.7,6.8-13.2c2.1-4.7,3.8-9.4,5.1-14c2.3-8.2,3.5-14.9,3.8-21.3c0.3-6.5,0.3-14.1-2.2-21.7
		c-1.6-5-4.4-9.1-8.3-12.2c-3.4-2.7-7.5-4.7-13-6.3C103,6.9,99.1,5.8,95,5c-1.2-2-2.9-3.1-4.4-3.9c-0.4-0.2-0.7-0.3-1.1-0.4
		C88.9,0.2,88.1,0,87.4,0h-3.5c-0.8,0-1.5,0.3-2.1,0.7c-0.1,0-0.2,0.1-0.3,0.1c-3.1,1.4-5.2,3.5-6.3,6.3c-1.8,4.6-0.6,9.5,2.9,12.8
		c2,1.8,4.8,2.9,7.6,2.9c2,0,3.9-0.5,5.4-1.5l1.9,0.5c3.2,0.8,6.3,1.5,9.3,2.5c1.7,0.6,3.4,1.2,4.9,2.1c2.7,1.5,4.4,3.8,5.1,7.1
		c1.1,5.1,1.3,10.8,0.5,17.8c-0.6,5.7-2.1,11.7-4.5,18.5c-1.3,3.5-2.8,7.2-4.7,11.2c-2.2,4.5-4.8,9-8.2,13.8
		c-3.3,0.8-5.5,2.9-6.9,4.5c-3.5,4-7.5,7.3-11.9,9.8c-2.6,1.5-5.4,2.4-8.2,2.9c-2.7,0.5-5.5,0.3-8.7-0.6c-3.9-1-7.6-3.1-11.8-6.4
		c-2.6-2.1-4.9-4.5-7-6.7c-1.6-1.8-3.4-2.9-5.4-3.2c-0.3-0.1-0.4-0.1-0.7-0.6c-0.2-0.5-0.5-0.8-0.7-1.1c-2-2.8-4-6-6-9.8
		c-3.4-6.5-6.1-13.3-8.1-20.2c-1.2-4.2-2.1-8.7-2.6-13.3c-0.4-3.2-0.4-6.8-0.2-11.2c0.2-2.5,0.6-4.8,1.3-7.2
		c0.6-1.8,1.7-3.3,3.4-4.6c1.9-1.5,4.3-2.2,6.7-3c3-1,6-1.7,9.2-2.4l1.5-0.3c0,0,0,0,0,0c1.6,1,3.5,1.5,5.5,1.5c3.9,0,7.5-2,9.5-5.4
		c1.6-2.7,2.1-5.8,1.4-8.8c-0.8-3-2.6-5.4-5.3-7c-0.6-0.3-1.1-0.6-1.7-0.9l-0.7-0.3c-0.5-0.2-1-0.4-1.6-0.4h-3.1
		c-0.4,0-0.8,0.1-1.2,0.2c-1.9,0.7-4.7,1.7-6.4,4.3c-0.2,0.2-0.3,0.4-1.1,0.6c-0.9,0.2-1.7,0.4-2.6,0.6l-1.5,0.4
		c-5.3,1.4-10.8,2.8-16,5.7c-5.8,3.2-9.8,8.2-12,14.7c-1.3,3.9-2,8.1-2.3,12.9c-0.4,7.8,0.4,15.7,2.3,24.1c1.3,5.4,3,10.9,5.2,16.4
		c1.5,3.8,3.2,7.5,5.3,11.5c2.5,4.8,5.3,9.4,8.4,13.4c0.4,0.5,0.4,0.7,0.4,1c0,2.7,1.1,5.2,3,7.3c2.5,2.7,4.6,4.9,6.8,6.7
		c3.2,2.9,6.2,5.2,9.2,7c5.6,3.4,10.8,5.5,16,6.4l0,7c0,4.1,0,8.2,0,12.4c0,1.8,0,3.5,0,5.3c0,4-0.1,8.2,0.1,12.3
		c0.2,3.8,0.8,7.7,1.8,11.5c1.6,6,4.1,11.6,7.4,16.7c2.6,4.1,5.8,7.8,9.4,11.1c4.5,4.2,9.7,7.6,15.2,10.2c5.5,2.6,11.4,4.2,18.1,5
		c2.1,0.3,4.3,0.4,6.4,0.4c7.3,0,14.7-1.5,22-4.5c5-2,9.8-4.9,14.1-8.4c5.6-4.5,10.2-9.8,13.7-15.8c3.1-5.2,5.3-10.7,6.6-16.4
		c1.1-4.9,1.6-9.9,1.7-15.4l0-26.8c2.6-0.7,5-1.6,7.2-2.8c4.4-2.3,8.2-5.5,11.3-9.5c3.7-4.9,5.9-10.5,6.6-16.7
		C198.9,103,198,97.3,195.6,91.8z M164.8,85.2l0,1.7c0,0,0,0,0,0L164.8,85.2C164.8,85.2,164.8,85.2,164.8,85.2z M176.5,105.3
		c0,3.1-1.2,6-3.4,8.2c-2.2,2.2-5.1,3.4-8.1,3.4c0,0-0.3,0-0.3,0c-3.1,0-6.1-1.2-8.2-3.4c-2.2-2.2-3.3-5.1-3.3-8.2
		c0.1-6.7,5-11.6,11.7-11.6C172.2,93.7,176.5,99.6,176.5,105.3z"/>
	<path class="st0" d="M153.2,105.3c0,3.1,1.1,6,3.3,8.2c2.2,2.2,5.1,3.4,8.2,3.4c0,0,0.3,0,0.3,0c3,0,5.9-1.2,8.1-3.4
		c2.2-2.2,3.4-5.1,3.4-8.2c0-5.7-4.3-11.7-11.6-11.7C158.2,93.7,153.3,98.6,153.2,105.3z"/>
</g>
</svg>
